<?xml version="1.0" standalone="no"?>
<!DOCTYPE svg PUBLIC "-//W3C//DTD SVG 20010904//EN"
 "http://www.w3.org/TR/2001/REC-SVG-20010904/DTD/svg10.dtd">
<svg version="1.0" xmlns="http://www.w3.org/2000/svg"
 width="16.000000pt" height="16.000000pt" viewBox="0 0 16.000000 16.000000"
 preserveAspectRatio="xMidYMid meet">
<metadata>
Created by potrace 1.11, written by Peter Selinger 2001-2013
</metadata>
<g transform="translate(0.000000,16.000000) scale(0.012500,-0.012500)"
fill="#000000" stroke="none">
<path d="M605 1260 c-11 -12 -15 -41 -15 -103 0 -75 3 -89 21 -106 23 -21 46
-18 67 7 18 23 16 172 -3 199 -17 25 -49 26 -70 3z"/>
<path d="M210 1103 c-9 -2 -21 -13 -28 -24 -15 -24 -5 -46 46 -97 82 -82 109
-92 138 -53 18 23 6 47 -52 106 -58 59 -81 73 -104 68z"/>
<path d="M1036 1098 c-10 -5 -42 -34 -72 -64 -62 -63 -72 -103 -29 -122 21
-10 29 -8 57 16 56 48 95 86 105 107 22 42 -21 85 -61 63z"/>
<path d="M523 900 c-69 -33 -115 -78 -142 -140 -45 -105 -31 -194 55 -336 34
-56 56 -104 56 -123 2 -48 17 -54 140 -55 131 -1 151 6 155 54 2 21 26 72 60
128 82 136 97 229 53 330 -64 144 -237 210 -377 142z m182 -80 c22 -10 22 -10
-19 -16 -41 -7 -107 -43 -134 -73 -28 -31 -59 -95 -64 -133 -8 -59 -25 -38
-32 38 -6 75 30 140 99 177 32 17 117 21 150 7z"/>
<path d="M29 683 c-24 -6 -31 -44 -13 -70 13 -21 22 -23 100 -23 47 0 94 5
105 10 26 14 26 66 0 80 -19 10 -159 12 -192 3z"/>
<path d="M1050 670 c-21 -21 -18 -46 8 -67 24 -19 172 -17 200 2 23 17 24 43
3 69 -11 12 -33 16 -102 16 -75 0 -92 -3 -109 -20z"/>
<path d="M306 365 c-29 -15 -110 -94 -124 -122 -12 -22 1 -58 23 -67 23 -8 45
6 109 70 40 40 56 63 56 82 0 38 -29 55 -64 37z"/>
<path d="M916 354 c-14 -35 -3 -57 52 -110 31 -31 64 -59 72 -64 21 -11 60 6
61 27 3 36 -4 47 -64 104 -63 61 -108 77 -121 43z"/>
<path d="M504 183 c-17 -17 -17 -100 -1 -120 5 -7 19 -13 30 -13 11 0 31 -10
43 -21 32 -30 95 -31 127 -1 13 12 32 22 43 22 31 0 44 20 44 69 0 75 -3 76
-145 77 -100 1 -129 -1 -141 -13z"/>
</g>
</svg>
